# xmcd
#
# Track frame offsets:
#	150
#	19081
#	41862
#	87734
#	104155
#	121591
#	148527
#
# Disc length: 2231 seconds
#
# Revision: 0
# Processed by: cddbd v1.5.2PL0 Copyright (c) Steve Scherf et al.
# Submitted via: EasyCDDAExtractor 9.0.0.1
#
DISCID=6008b507
DTITLE=Ozzy Osbourne - Keil Auditorium St Louis MO 02-04-86 Disc 2
DYEAR=1986
DGENRE=Hard Rock
TTITLE0=Thank God For The Bomb
TTITLE1=Flying High Again
TTITLE2=Secret Loser Incl Drum Solo
TTITLE3=Secret Loser Reprise
TTITLE4=Iron Man
TTITLE5=Crazy Train
TTITLE6=Paranoid
EXTD=
EXTT0=
EXTT1=
EXTT2=
EXTT3=
EXTT4=
EXTT5=
EXTT6=
PLAYORDER=
